<?xml version="1.0" standalone="no"?>
<!DOCTYPE svg PUBLIC "-//W3C//DTD SVG 20010904//EN"
 "http://www.w3.org/TR/2001/REC-SVG-20010904/DTD/svg10.dtd">
<svg version="1.0" xmlns="http://www.w3.org/2000/svg"
 width="700.000000pt" height="700.000000pt" viewBox="0 0 700.000000 700.000000"
 preserveAspectRatio="xMidYMid meet">
<metadata>
Created by potrace 1.14, written by Peter Selinger 2001-2017
</metadata>
<g transform="translate(0.000000,700.000000) scale(0.100000,-0.100000)"
fill="#000000" stroke="none">
<path d="M3249 6996 c-2 -2 -37 -7 -78 -10 -113 -10 -269 -33 -351 -52 -14 -3
-38 -7 -55 -10 -111 -19 -539 -150 -570 -174 -5 -4 -21 -11 -35 -15 -14 -4
-51 -20 -82 -36 -32 -15 -58 -25 -58 -22 0 3 -6 1 -12 -5 -7 -5 -66 -37 -131
-71 -65 -33 -131 -70 -147 -81 -15 -11 -31 -20 -34 -20 -10 0 -242 -156 -311
-209 -194 -148 -421 -364 -561 -532 -93 -112 -220 -286 -281 -385 -202 -327
-327 -612 -424 -969 -24 -89 -24 -88 9 -80 15 4 34 8 42 10 29 6 135 36 155
45 11 4 43 16 70 25 204 71 507 216 947 456 70 38 130 69 133 69 3 0 23 11 44
24 21 14 133 72 247 129 181 90 246 121 409 192 215 94 558 186 785 213 85 9
407 9 490 -1 53 -6 221 -39 317 -62 101 -24 343 -127 463 -197 169 -98 385
-302 493 -464 153 -230 225 -449 233 -709 l4 -130 -23 38 c-109 188 -158 265
-217 342 -63 84 -195 222 -265 277 -193 155 -441 266 -679 304 -21 3 -48 8
-60 11 -11 3 -104 7 -206 9 -214 3 -283 -4 -462 -51 -262 -68 -566 -230 -905
-483 -91 -68 -401 -307 -698 -540 -25 -19 -64 -48 -81 -60 -11 -7 -57 -40
-104 -73 -399 -285 -780 -458 -1218 -555 -22 -4 -23 -8 -18 -52 12 -91 17
-127 22 -157 3 -16 7 -39 8 -50 2 -11 6 -33 10 -50 3 -16 8 -39 10 -51 16 -83
63 -259 97 -364 298 -907 926 -1634 1774 -2057 99 -49 188 -90 215 -98 3 -1
19 -7 35 -14 95 -40 325 -117 405 -136 8 -2 56 -13 105 -25 282 -67 450 -85
790 -85 245 0 414 10 520 29 11 2 38 7 60 11 874 149 1654 616 2196 1315 182
235 359 543 471 820 68 168 167 485 155 497 -15 14 -328 -90 -512 -170 -156
-68 -496 -238 -665 -334 -55 -30 -133 -73 -285 -153 -182 -97 -438 -222 -565
-275 -123 -52 -389 -146 -450 -159 -14 -3 -52 -12 -85 -21 -74 -18 -220 -44
-300 -53 -126 -14 -537 -4 -565 13 -3 2 -26 6 -50 10 -25 3 -53 8 -62 11 -9 3
-25 6 -35 8 -126 25 -348 107 -476 177 -38 22 -71 39 -73 39 -6 0 -134 90
-184 129 -79 62 -234 225 -292 307 -161 229 -241 460 -255 727 -4 86 -3 127 5
127 5 0 15 -12 21 -27 21 -56 119 -215 192 -314 151 -203 324 -354 529 -461
47 -24 87 -44 90 -45 3 0 23 -8 45 -17 69 -29 208 -67 300 -81 117 -19 178
-23 310 -23 209 0 360 26 565 100 195 70 363 163 664 368 45 31 296 222 451
344 258 204 453 348 606 451 256 170 323 207 621 343 111 51 314 113 517 158
22 5 23 8 16 57 -4 29 -9 68 -11 87 -5 39 -5 41 -28 165 -92 493 -320 1013
-626 1423 -481 645 -1161 1103 -1935 1302 -82 21 -170 41 -195 45 -24 4 -47 8
-50 10 -3 1 -27 6 -54 9 -27 4 -52 9 -55 11 -3 1 -37 6 -76 10 -38 3 -83 8
-100 11 -34 6 -590 15 -596 10z m412 -2701 c239 -50 445 -207 562 -427 31 -59
62 -153 78 -236 15 -78 6 -255 -16 -337 -42 -157 -130 -299 -250 -404 -271
-237 -668 -267 -968 -74 -465 298 -508 951 -86 1306 102 86 237 150 366 173
15 3 29 7 31 8 9 10 227 3 283 -9z"/>
</g>
</svg>
