<svg fill="#000000" xmlns="http://www.w3.org/2000/svg"  viewBox="0 0 100 100" width="50px" height="50px"><path d="M 50.898438 2.0097656 C 50.776313 1.99325 50.650891 1.9995 50.525391 2.03125 C 37.155391 5.37025 36.115234 17.542359 36.115234 21.193359 C 36.115234 25.487359 38.245047 29.32975 40.123047 32.71875 C 41.877047 35.88175 43.392219 38.614719 42.324219 40.386719 C 42.021219 40.890719 41.832469 40.928625 41.730469 40.890625 C 40.005469 40.888625 36.624688 35.236266 35.179688 32.822266 L 34.773438 32.146484 C 34.295437 31.355484 33.426859 30.876453 32.505859 30.939453 C 31.572859 30.987453 30.744703 31.545531 30.345703 32.394531 C 29.002703 35.248531 27.015625 41.853797 27.015625 46.966797 C 27.015625 52.288797 29.865063 59.159953 31.789062 62.126953 C 32.275063 62.877953 33.082234 63.317438 33.990234 63.273438 C 34.882234 63.240437 35.671562 62.752797 36.101562 61.966797 L 36.753906 60.765625 C 40.439906 53.948625 42.823688 50.498047 43.804688 50.498047 C 43.806688 50.498047 43.788719 50.449031 43.886719 50.582031 C 45.764719 53.184031 44.375188 57.522625 42.617188 63.015625 C 40.990187 68.100625 39.146484 73.863312 39.146484 80.320312 C 39.146484 88.834312 44.207453 97.998047 55.314453 97.998047 C 59.036453 97.998047 62.414172 96.579 64.826172 94 C 67.172172 91.494 68.384344 88.062031 68.152344 84.582031 C 67.806344 79.391031 63.476953 74.327875 58.501953 73.296875 C 57.488953 73.088875 56.504594 73.057219 55.558594 73.199219 C 55.736594 73.013219 55.915656 72.829625 56.097656 72.640625 C 61.950656 66.564625 69.964844 58.243609 69.964844 47.724609 C 69.964844 40.941609 63.872828 36.397891 57.423828 31.587891 C 56.504828 30.901891 55.571672 30.207187 54.638672 29.492188 C 56.622672 30.087187 58.747922 30.335547 60.669922 30.560547 C 62.488922 30.773547 64.208844 30.974063 65.464844 31.414062 C 67.918844 32.274062 69.599172 31.627547 70.576172 30.935547 C 72.072172 29.878547 73 27.888188 73 25.742188 C 73 22.969188 70.480766 21.602484 68.259766 20.396484 C 66.240766 19.300484 64.335141 18.265297 63.869141 16.404297 C 63.495141 14.906297 62.713375 13.590359 61.734375 12.443359 C 61.935375 10.149359 64.087687 9.088875 64.179688 9.046875 C 64.682688 8.817875 64.902828 8.2246562 64.673828 7.7226562 C 64.444828 7.2196562 63.852609 6.9985625 63.349609 7.2265625 C 63.229609 7.2815625 60.938828 8.3603437 60.048828 10.777344 C 57.418828 8.5453438 54.272125 7.2224375 53.078125 6.7734375 L 51.714844 2.6855469 C 51.590344 2.3135469 51.264812 2.0593125 50.898438 2.0097656 z M 50.115234 4.2128906 L 51.333984 7.8632812 C 51.432984 8.1612812 51.667797 8.3960937 51.966797 8.4960938 C 52.052797 8.5250937 60.565687 11.433672 61.929688 16.888672 C 62.608688 19.602672 65.103687 20.956344 67.304688 22.152344 C 69.603687 23.400344 71 24.265187 71 25.742188 C 71 27.250187 70.395875 28.615641 69.421875 29.306641 C 68.560875 29.917641 67.451953 29.992297 66.126953 29.529297 C 64.661953 29.015297 62.837297 28.801172 60.904297 28.576172 C 56.742297 28.089172 52.024531 27.537297 50.144531 23.779297 C 49.909531 23.310297 49.356047 23.104781 48.873047 23.300781 C 48.390047 23.496781 48.139875 24.030297 48.296875 24.529297 C 48.339875 24.667297 49.396687 27.930141 52.179688 30.119141 C 53.038841 30.795144 53.895003 31.430908 54.753906 32.076172 C 53.688242 31.992298 52.473151 31.925649 50.972656 31.865234 C 47.631303 31.732102 43.582624 31.569518 41.357422 30.794922 C 39.744124 27.852936 38.115234 24.603297 38.115234 21.191406 C 38.115234 19.972201 38.227807 18.255145 38.660156 16.365234 C 40.549143 10.984667 45.706309 8.7050696 49.599609 8.3964844 C 49.874609 8.3754844 50.080594 8.134375 50.058594 7.859375 C 50.037594 7.583375 49.776484 7.3853906 49.521484 7.4003906 C 46.647775 7.6273158 43.134394 8.8611016 40.544922 11.486328 C 42.273299 8.4752114 45.186808 5.6673896 50.115234 4.2128906 z M 56.832031 16.644531 A 1.516 1.516 0 1 0 56.832031 19.677734 A 1.516 1.516 0 1 0 56.832031 16.644531 z M 42.021484 32.025391 C 44.42029 32.603738 47.83023 32.742605 50.933594 32.867188 C 52.879461 32.944748 54.948788 33.039676 56.302734 33.251953 C 58.139552 34.621575 59.87992 35.938794 61.453125 37.259766 C 59.569629 37.071459 56.915708 36.955057 53.507812 36.830078 C 49.876619 36.696847 45.857069 36.544918 44.074219 36.1875 C 43.576969 34.87858 42.832157 33.48962 42.021484 32.025391 z M 32.607422 32.9375 C 32.722422 32.9375 32.925547 32.955734 33.060547 33.177734 L 33.462891 33.849609 C 33.628079 34.125638 33.790406 34.370569 33.955078 34.642578 C 33.530763 35.578023 33.133867 36.533097 32.792969 37.509766 C 32.700969 37.770766 32.838609 38.055484 33.099609 38.146484 C 33.154609 38.166484 33.208672 38.175781 33.263672 38.175781 C 33.470672 38.176781 33.663375 38.047797 33.734375 37.841797 C 33.991854 37.105104 34.282914 36.380622 34.589844 35.666016 C 37.04429 39.627465 39.439725 42.888023 41.728516 42.890625 L 41.730469 42.890625 C 42.379469 42.890625 43.305109 42.634969 44.037109 41.417969 C 44.22395 41.107354 44.362299 40.790508 44.466797 40.46875 C 45.379093 43.568555 45.950175 46.622481 45.974609 50.171875 C 45.837272 49.912789 45.684899 49.659359 45.507812 49.414062 C 45.084812 48.827062 44.498703 48.509766 43.845703 48.509766 C 43.801703 48.509766 43.756891 48.510672 43.712891 48.513672 C 41.574796 48.652069 39.178722 52.190167 35.650391 58.621094 C 33.147946 54.026771 32 49.560672 32 47 C 32 46.72 32.007484 46.423375 32.021484 46.109375 C 32.034484 45.833375 31.821875 45.598937 31.546875 45.585938 C 31.237875 45.540938 31.037437 45.785547 31.023438 46.060547 C 31.007437 46.391547 31 46.704 31 47 C 31 49.792622 32.280399 54.712166 35.082031 59.654297 C 35.051313 59.710993 35.025029 59.759299 34.994141 59.816406 L 34.347656 61.005859 C 34.219656 61.238859 34.003016 61.272391 33.916016 61.275391 C 33.815016 61.279391 33.610797 61.260063 33.466797 61.039062 C 31.600797 58.162062 29.015625 51.67275 29.015625 46.96875 C 29.015625 42.15975 30.88925 35.938094 32.15625 33.246094 C 32.28025 32.982094 32.512422 32.9425 32.607422 32.9375 z M 44.492188 37.265625 C 46.303006 37.537724 49.295314 37.674393 53.472656 37.828125 C 56.871449 37.952822 60.894808 38.106922 62.828125 38.443359 C 64.135264 39.641267 65.253435 40.858963 66.115234 42.136719 C 63.376803 41.556465 59.008444 41.440536 54.742188 41.330078 C 50.786509 41.226712 47.066371 41.123266 45.5625 40.650391 C 45.245444 39.533083 44.893139 38.412966 44.492188 37.265625 z M 32.494141 39.4375 C 32.300641 39.464172 32.132125 39.601281 32.078125 39.800781 C 31.724125 41.090781 31.453578 42.382578 31.267578 43.642578 C 31.227578 43.914578 31.415453 44.169938 31.689453 44.210938 C 31.713453 44.213938 31.739672 44.214844 31.763672 44.214844 C 32.007672 44.214844 32.220813 44.036109 32.257812 43.787109 C 32.436813 42.568109 32.701922 41.3145 33.044922 40.0625 C 33.117922 39.7955 32.960359 39.522219 32.693359 39.449219 C 32.626359 39.431969 32.558641 39.428609 32.494141 39.4375 z M 45.865234 41.757812 C 47.713109 42.140541 50.991774 42.230076 54.716797 42.328125 C 59.317785 42.449088 64.454546 42.583731 66.837891 43.345703 C 67.451768 44.52059 67.834538 45.756287 67.929688 47.080078 C 65.995673 47.069184 51.373811 46.942952 46.654297 45.683594 C 46.466595 44.34254 46.194771 43.046938 45.865234 41.757812 z M 46.767578 46.742188 C 52.003605 47.956163 65.825213 48.069504 67.949219 48.080078 C 67.920497 49.562921 67.710972 51.004467 67.361328 52.404297 C 60.819496 52.03177 49.567962 51.247027 46.966797 50.546875 C 46.97199 49.216977 46.898554 47.959085 46.767578 46.742188 z M 46.9375 51.585938 C 50.751214 52.4275 64.049566 53.21859 67.09375 53.392578 C 66.655816 54.847422 66.072702 56.255065 65.376953 57.613281 C 58.794357 57.03711 49.610441 56.027511 46.703125 55.185547 C 46.742724 54.824127 46.768707 54.470783 46.779297 54.125 C 46.859772 53.249097 46.912087 52.401684 46.9375 51.585938 z M 46.552734 56.167969 C 50.483321 57.25248 61.388449 58.268437 64.857422 58.574219 C 64.026556 60.062619 63.078924 61.489157 62.060547 62.851562 C 55.124389 61.942966 47.893223 60.743154 45.648438 59.986328 C 46.041516 58.635594 46.354041 57.362334 46.552734 56.167969 z M 45.376953 60.898438 C 48.591573 62.003949 57.121295 63.210342 61.365234 63.769531 C 60.22724 65.221588 59.031533 66.574082 57.84375 67.869141 C 55.83923 67.42844 47.562113 65.570965 44.333984 64.232422 C 44.397059 64.034892 44.460901 63.822428 44.523438 63.626953 C 44.825619 62.682989 45.108487 61.780036 45.376953 60.898438 z M 44.037109 65.1875 C 47.233443 66.478993 54.303257 68.107769 57.066406 68.722656 C 56.241671 69.603999 55.427978 70.454729 54.65625 71.255859 C 54.33725 71.587029 54.059899 71.882055 53.755859 72.199219 C 51.91662 71.839584 45.660707 70.564566 42.818359 69.251953 C 43.201432 67.845426 43.619769 66.508474 44.037109 65.1875 z M 42.566406 70.230469 C 45.319102 71.439689 50.475527 72.560043 52.9375 73.056641 C 51.829055 74.228798 50.837532 75.322462 50.052734 76.332031 C 48.441258 76.065082 44.446868 75.31971 41.71875 74.140625 C 41.951249 72.804928 42.240602 71.502047 42.566406 70.230469 z M 56.914062 75.105469 C 57.302256 75.122053 57.695828 75.172859 58.095703 75.255859 C 62.179703 76.101859 65.87025 80.433844 66.15625 84.714844 C 66.35125 87.643844 65.335187 90.530766 63.367188 92.634766 C 61.337187 94.804766 58.476453 95.998047 55.314453 95.998047 C 45.581453 95.998047 41.148438 87.871312 41.148438 80.320312 C 41.148438 78.55404 41.307846 76.838259 41.556641 75.164062 C 44.079401 76.203543 47.509375 76.903203 49.392578 77.234375 C 48.927277 77.91552 48.554509 78.571278 48.316406 79.201172 C 48.312406 79.211172 48.309641 79.219516 48.306641 79.228516 C 47.276641 81.987516 47.691062 84.985953 49.414062 87.251953 C 51.008063 89.347953 53.503937 90.459422 56.085938 90.232422 C 59.077937 89.967422 60.983266 87.234312 60.822266 84.945312 C 60.709266 83.342313 59.489469 81.5315 56.355469 81.6875 C 55.803469 81.7165 55.379203 82.186281 55.408203 82.738281 C 55.437203 83.290281 55.899984 83.724547 56.458984 83.685547 C 57.499984 83.629547 58.739125 83.831938 58.828125 85.085938 C 58.912125 86.287937 57.842203 88.069234 55.908203 88.240234 C 53.976203 88.404234 52.197859 87.608016 51.005859 86.041016 C 49.708859 84.335016 49.396063 82.06775 50.164062 79.96875 C 51.796813 76.520375 54.196709 74.989381 56.914062 75.105469 z"/></svg>