<svg fill="#000000" xmlns="http://www.w3.org/2000/svg"  viewBox="0 0 64 64" width="50px" height="50px"><path d="M 9.3203125 1.7597656 C 7.7503125 1.7597656 6 3.1298438 6 5.0898438 C 6 7.0598437 7.2299219 9.1092188 8.9199219 11.949219 C 10.489922 14.579219 12.450547 17.859453 14.060547 22.189453 C 15.790547 26.809453 15.440625 30.140312 15.140625 33.070312 C 14.880625 35.480313 14.660156 37.669922 15.660156 39.919922 C 15.270156 40.459922 14.939922 40.960703 14.669922 41.470703 C 14.069922 42.480703 13.320078 44.049062 13.080078 45.789062 C 12.860078 47.269063 13.099297 48.900703 13.779297 50.470703 C 14.429297 52.030703 15.380781 53.179922 16.050781 53.919922 C 16.960781 54.919922 17.940781 55.769297 18.800781 56.529297 C 19.450781 57.109297 20.079844 57.649453 20.589844 58.189453 C 21.789844 59.479453 21.739766 59.819219 21.009766 60.699219 C 20.389766 61.449219 20.389766 62.539297 21.009766 63.279297 C 21.359766 63.689297 21.840859 63.950234 22.380859 63.990234 C 22.440859 64.000234 22.490781 64 22.550781 64 C 23.020781 64 23.479844 63.829297 23.839844 63.529297 C 24.629844 62.859297 25.96 61.419297 26 59.279297 C 26 57.529297 25.250703 56.240781 24.470703 55.050781 C 23.820703 54.140781 23.199844 53.380391 22.589844 52.650391 C 21.959844 51.890391 21.359141 51.170156 20.869141 50.410156 C 20.419141 49.720156 20.119531 49.230469 20.019531 48.730469 C 19.889531 48.140469 19.870234 47.590234 19.990234 47.240234 C 20.170234 46.690234 20.580391 46.010078 21.150391 45.330078 C 23.330391 46.260078 25.470547 46.029063 27.810547 45.789062 C 30.730547 45.489063 34.040391 45.139141 38.650391 46.869141 C 42.960391 48.489141 46.219844 50.449297 48.839844 52.029297 C 51.669844 53.729297 53.709688 54.960938 55.679688 54.960938 C 57.639688 54.960938 59 53.210625 59 51.640625 C 59 49.520625 57.809922 47.030625 56.419922 44.140625 C 54.449922 40.030625 52 34.909141 52 28.869141 C 52 24.559141 54.009219 23.120703 55.949219 21.720703 C 57.449219 20.640703 59 19.529766 59 17.259766 C 59 15.959766 57.79 13.400391 55 13.400391 C 52.84 13.400391 51.820234 14.780391 50.990234 15.900391 C 50.190234 16.970391 49.56 17.830078 48 17.830078 C 46.81 17.830078 45.289062 16.529766 44.789062 16.009766 C 44.289062 15.529766 43 14.000781 43 12.800781 C 43 11.230781 43.849922 10.599063 44.919922 9.7890625 C 46.029922 8.9690625 47.410156 7.9395313 47.410156 5.7695312 C 47.410156 2.9695313 44.860547 1.7597656 43.560547 1.7597656 C 41.300547 1.7597656 40.189375 3.3200781 39.109375 4.8300781 C 37.719375 6.7700781 36.28 8.7890625 32 8.7890625 C 25.99 8.7890625 20.879063 6.3296094 16.789062 4.3496094 C 13.909063 2.9596094 11.430312 1.7597656 9.3203125 1.7597656 z M 9.3203125 3.7597656 C 10.970313 3.7597656 13.259922 4.8703906 15.919922 6.1503906 C 20.199922 8.2203906 25.53 10.789063 32 10.789062 C 37.31 10.789062 39.290234 8.0102344 40.740234 5.9902344 C 41.780234 4.5302344 42.380547 3.7597656 43.560547 3.7597656 C 43.800547 3.7597656 45.410156 4.1395313 45.410156 5.7695312 C 45.410156 6.8795313 44.830469 7.3694531 43.730469 8.1894531 C 42.510469 9.0994531 41 10.230781 41 12.800781 C 41 15.060781 43.149141 17.209922 43.369141 17.419922 C 43.609141 17.669922 45.75 19.830078 48 19.830078 C 50.57 19.830078 51.699609 18.309844 52.599609 17.089844 C 53.419609 15.979844 53.9 15.400391 55 15.400391 C 56.63 15.400391 57 17.009766 57 17.259766 C 57 18.449766 56.239297 19.049844 54.779297 20.089844 C 52.759297 21.549844 50 23.529141 50 28.869141 C 50 35.359141 52.559141 40.709766 54.619141 45.009766 C 55.899141 47.669766 57 49.980625 57 51.640625 C 57 52.170625 56.449688 52.960938 55.679688 52.960938 C 54.269688 52.960938 52.330859 51.800312 49.880859 50.320312 C 47.180859 48.700313 43.829609 46.68 39.349609 45 C 36.309609 43.85 33.750781 43.539063 31.550781 43.539062 C 30.090781 43.539062 28.789609 43.680781 27.599609 43.800781 C 25.329609 44.040781 23.580078 44.219453 21.830078 43.439453 C 21.560078 43.319453 21.28 43.18 21 43 L 20.990234 43 C 20.440234 42.65 19.880781 42.199141 19.300781 41.619141 C 18.630781 40.949141 18.139062 40.319453 17.789062 39.689453 C 17.719062 39.579453 17.669141 39.479141 17.619141 39.369141 C 17.619141 39.369141 17.609375 39.369375 17.609375 39.359375 C 16.689375 37.509375 16.880859 35.689297 17.130859 33.279297 C 17.440859 30.279297 17.819453 26.550234 15.939453 21.490234 C 14.259453 16.990234 12.250625 13.629922 10.640625 10.919922 C 9.160625 8.4599219 8 6.5098437 8 5.0898438 C 8 4.3198438 8.7903125 3.7597656 9.3203125 3.7597656 z M 13.082031 7.6054688 C 12.697984 7.5384375 12.293359 7.699625 12.068359 8.046875 C 11.768359 8.510875 11.902234 9.1296875 12.365234 9.4296875 C 12.401234 9.4536875 13.259953 10.006281 14.626953 10.738281 C 14.777953 10.819281 14.938656 10.857422 15.097656 10.857422 C 15.454656 10.857422 15.799469 10.666078 15.980469 10.330078 C 16.240469 9.8420781 16.059266 9.2375625 15.572266 8.9765625 C 14.283266 8.2845625 13.459172 7.755 13.451172 7.75 C 13.334922 7.67525 13.210047 7.6278125 13.082031 7.6054688 z M 18.583984 10.521484 C 18.194078 10.523172 17.825016 10.754219 17.666016 11.136719 C 17.454016 11.647719 17.695078 12.233313 18.205078 12.445312 C 20.425078 13.370312 22.477594 13.964844 24.308594 14.214844 C 24.354594 14.220844 24.400312 14.224609 24.445312 14.224609 C 24.937312 14.224609 25.367547 13.859422 25.435547 13.357422 C 25.510547 12.810422 25.127078 12.307422 24.580078 12.232422 C 22.921078 12.006422 21.035609 11.456609 18.974609 10.599609 C 18.847109 10.546109 18.713953 10.520922 18.583984 10.521484 z M 30.5 14.810547 A 1.5 1.506 0 1 0 30.5 17.822266 A 1.5 1.506 0 1 0 30.5 14.810547 z M 43.5 26.857422 A 1.5 1.506 0 1 0 43.5 29.869141 A 1.5 1.506 0 1 0 43.5 26.857422 z M 31.494141 37.521484 C 30.942141 37.522484 30.495094 37.970438 30.496094 38.523438 L 30.501953 40.523438 C 30.502953 41.075437 30.950953 41.521484 31.501953 41.521484 L 31.503906 41.521484 C 32.055906 41.520484 32.502953 41.072531 32.501953 40.519531 L 32.496094 38.519531 C 32.495094 37.967531 32.047094 37.521484 31.496094 37.521484 L 31.494141 37.521484 z M 25.978516 37.890625 C 25.427516 37.922625 25.006109 38.393313 25.037109 38.945312 L 25.150391 40.941406 C 25.181391 41.473406 25.622438 41.884766 26.148438 41.884766 C 26.167438 41.884766 26.187078 41.883812 26.205078 41.882812 C 26.756078 41.850813 27.177484 41.380125 27.146484 40.828125 L 27.033203 38.830078 C 27.001203 38.279078 26.533516 37.869625 25.978516 37.890625 z M 36.902344 38.123047 C 36.519188 38.195234 36.200281 38.492688 36.113281 38.898438 L 35.693359 40.853516 C 35.577359 41.394516 35.920938 41.926969 36.460938 42.042969 C 36.531938 42.057969 36.601875 42.064453 36.671875 42.064453 C 37.132875 42.064453 37.547437 41.743437 37.648438 41.273438 L 38.068359 39.318359 C 38.184359 38.777359 37.840781 38.246859 37.300781 38.130859 C 37.165281 38.100609 37.030062 38.098984 36.902344 38.123047 z M 42.400391 39.806641 C 42.010813 39.812312 41.642328 40.048391 41.486328 40.431641 L 40.734375 42.283203 C 40.526375 42.795203 40.771203 43.379891 41.283203 43.587891 C 41.406203 43.637891 41.535156 43.660156 41.660156 43.660156 C 42.055156 43.660156 42.429891 43.425109 42.587891 43.037109 L 43.339844 41.185547 C 43.547844 40.673547 43.301063 40.088859 42.789062 39.880859 C 42.661313 39.828859 42.53025 39.80475 42.400391 39.806641 z M 16.800781 41.800781 C 17.110781 42.200781 17.470859 42.609297 17.880859 43.029297 C 18.390859 43.539297 18.890859 43.970078 19.380859 44.330078 C 18.760859 45.120078 18.309844 45.919141 18.089844 46.619141 C 17.799844 47.479141 17.910547 48.480156 18.060547 49.160156 C 18.240547 49.990156 18.659453 50.680234 19.189453 51.490234 C 19.739453 52.360234 20.380781 53.119687 21.050781 53.929688 C 21.630781 54.629687 22.240313 55.349922 22.820312 56.169922 C 23.440312 57.129922 24 58.079766 24 59.259766 C 23.98 60.599766 23.080781 61.550469 22.550781 61.980469 C 24.420781 59.720469 23.270781 58.140547 22.050781 56.810547 C 21.460781 56.210547 20.809141 55.629297 20.119141 55.029297 C 19.249141 54.269297 18.369297 53.490313 17.529297 52.570312 C 16.619297 51.570313 16.039141 50.679453 15.619141 49.689453 C 15.089141 48.449453 14.890547 47.200313 15.060547 46.070312 C 15.210547 44.960313 15.680391 43.690937 16.400391 42.460938 C 16.520391 42.240938 16.650781 42.020781 16.800781 41.800781 z M 47.496094 42.136719 C 47.107359 42.104609 46.719344 42.305875 46.527344 42.671875 L 45.599609 44.441406 C 45.342609 44.931406 45.532484 45.536969 46.021484 45.792969 C 46.169484 45.870969 46.328375 45.90625 46.484375 45.90625 C 46.845375 45.90625 47.192094 45.710141 47.371094 45.369141 L 48.298828 43.599609 C 48.555828 43.109609 48.367906 42.504047 47.878906 42.248047 C 47.756156 42.183297 47.625672 42.147422 47.496094 42.136719 z"/></svg>