<?xml version="1.0"?><svg fill="#000000" xmlns="http://www.w3.org/2000/svg"  viewBox="0 0 100 100" width="50px" height="50px">    <path d="M 63.212891 13.949219 C 62.480592 13.948713 61.728578 13.966891 60.955078 14.001953 C 53.588078 14.336953 47.097656 16.004547 42.097656 18.810547 C 32.973656 11.796547 23.325719 15.744172 20.261719 18.701172 C 18.770719 20.140172 19.113219 21.099969 19.449219 21.542969 C 19.986219 22.248969 20.870531 22.558969 21.894531 22.917969 C 24.110531 23.695969 27.430813 24.876062 29.882812 30.914062 C 20.905812 45.618063 20.333406 66.019391 21.441406 70.775391 C 18.508406 71.945391 10.039062 75.940781 10.039062 83.050781 L 10.039062 83.25 L 10.115234 83.433594 C 10.178234 83.587594 10.778172 84.944563 12.201172 85.226562 C 12.368172 85.259563 12.537031 85.275391 12.707031 85.275391 C 13.648031 85.275391 14.633578 84.766813 15.642578 83.757812 C 16.168578 83.231813 18.319875 83.076172 20.046875 82.951172 C 22.411875 82.780172 25.176047 82.575516 26.623047 81.353516 C 28.070047 82.575516 30.834219 82.780172 33.199219 82.951172 C 34.727219 83.062172 36.587375 83.195844 37.359375 83.589844 C 37.615375 84.959844 38.819719 86 40.261719 86 C 41.886719 86 43.207031 84.678734 43.207031 83.052734 C 43.207031 75.804734 34.413438 71.795844 31.648438 70.714844 C 34.728437 52.729844 44.076422 45.578297 51.732422 42.779297 C 51.063422 46.184297 49.696922 49.265781 49.169922 50.050781 C 48.519922 51.018781 48.890078 51.691547 49.080078 51.935547 C 49.434078 52.392547 50.086891 52.554687 50.837891 52.554688 C 52.170891 52.554688 53.8185 52.039469 54.6875 51.730469 C 60.6045 49.625469 64.500656 46.084437 66.472656 41.023438 L 70.021484 41 C 82.423484 40.999 89.891031 41.0075 89.957031 33.0625 C 89.982031 29.9875 88.17975 25.122547 84.09375 21.185547 C 80.6025 17.821797 74.197366 13.95681 63.212891 13.949219 z M 63.173828 15.947266 C 73.519675 15.946112 79.481094 19.515234 82.707031 22.623047 C 86.896031 26.660047 87.974984 31.205922 87.958984 33.044922 C 87.952984 33.785922 87.864359 34.429047 87.693359 34.998047 L 84.029297 34.998047 C 83.753297 34.998047 83.529297 35.222047 83.529297 35.498047 C 83.529297 35.774047 83.753297 35.998047 84.029297 35.998047 L 87.238281 35.998047 C 85.533281 38.786047 80.565187 39 70.367188 39 C 70.254188 39 67.140625 39.017578 67.140625 39.017578 C 67.399625 38.060578 67.594328 37.051047 67.736328 35.998047 L 80.5 35.998047 C 80.776 35.998047 81 35.774047 81 35.498047 C 81 35.222047 80.776 35 80.5 35 L 67.849609 35 C 67.942609 34.035 68 33.042 68 32 C 68 31.448 67.553 31 67 31 C 66.447 31 66 31.448 66 32 C 66 41.267 62.192578 46.938656 54.017578 49.847656 C 53.006578 50.206656 51.913453 50.451156 51.189453 50.535156 C 52.680453 47.649156 56.759344 37.343109 51.652344 32.287109 C 51.260344 31.897109 50.628281 31.902922 50.238281 32.294922 C 49.849281 32.687922 49.853094 33.319984 50.246094 33.708984 C 51.913094 35.359984 52.276922 37.94975 52.044922 40.59375 C 51.983922 40.60175 51.922328 40.595234 51.861328 40.615234 C 43.458328 43.422234 32.775594 50.982687 29.558594 71.054688 L 27.089844 75.994141 L 26.626953 76.921875 L 24.068359 71.806641 C 24.271359 69.457641 24.791141 66.762828 25.619141 63.923828 C 25.697141 63.658828 25.545297 63.381688 25.279297 63.304688 C 25.015297 63.225687 24.736156 63.379531 24.660156 63.644531 C 24.016156 65.850531 23.558344 67.972641 23.277344 69.931641 C 22.674344 65.990641 22.717313 46.328109 31.695312 31.787109 C 33.216313 29.531109 35.021406 27.329203 36.941406 25.408203 C 37.136406 25.213203 37.136406 24.896172 36.941406 24.701172 C 36.746406 24.506172 36.429375 24.506172 36.234375 24.701172 C 34.605375 26.331172 33.060453 28.161734 31.689453 30.052734 C 28.899453 23.277734 24.949547 21.87125 22.560547 21.03125 C 22.083547 20.86425 21.596875 20.694391 21.296875 20.525391 C 21.802875 19.858391 23.597094 18.440312 26.496094 17.570312 C 29.448094 16.686312 35.237234 15.926078 41.115234 20.580078 C 40.355234 21.107078 39.596797 21.6845 38.841797 22.3125 C 38.629797 22.4895 38.600344 22.805578 38.777344 23.017578 C 38.876344 23.136578 39.019109 23.197266 39.162109 23.197266 C 39.275109 23.197266 39.389422 23.158078 39.482422 23.080078 C 40.472422 22.256078 41.468938 21.526719 42.460938 20.886719 C 42.468938 20.882719 42.476375 20.874141 42.484375 20.869141 C 42.486375 20.868141 42.488234 20.866234 42.490234 20.865234 C 42.497234 20.861234 42.504719 20.861422 42.511719 20.857422 C 47.302719 18.010422 53.712875 16.329094 61.046875 15.996094 C 61.776063 15.963094 62.484105 15.947343 63.173828 15.947266 z M 75.5 24 C 72.935 24 71 25.075 71 26.5 C 71 27.925 72.935 29 75.5 29 C 78.065 29 80 27.925 80 26.5 C 80 25.075 78.065 24 75.5 24 z M 75.5 25 C 77.503 25 79 25.792 79 26.5 C 79 27.208 77.503 28 75.5 28 C 73.497 28 72 27.208 72 26.5 C 72 25.792 73.497 25 75.5 25 z M 47.96875 35.207031 C 45.94775 35.445031 43.932422 35.890297 41.982422 36.529297 C 41.719422 36.615297 41.576109 36.897156 41.662109 37.160156 C 41.731109 37.370156 41.928672 37.505859 42.138672 37.505859 C 42.190672 37.505859 42.243922 37.497469 42.294922 37.480469 C 44.182922 36.862469 46.129938 36.432172 48.085938 36.201172 C 48.359938 36.169172 48.556437 35.920484 48.523438 35.646484 C 48.490437 35.372484 48.23775 35.170031 47.96875 35.207031 z M 38.654297 37.878906 C 38.589484 37.881547 38.524891 37.896281 38.462891 37.925781 C 32.816891 40.582781 28.66825 44.752297 29.40625 47.029297 C 29.71725 47.987297 30.503219 48.746859 31.699219 49.255859 C 30.358219 50.625859 29.120484 52.762828 28.271484 54.423828 C 28.145484 54.669828 28.244234 54.971656 28.490234 55.097656 C 28.563234 55.134656 28.64075 55.152344 28.71875 55.152344 C 28.90075 55.152344 29.073109 55.052859 29.162109 54.880859 C 30.487109 52.287859 31.838844 50.359125 32.964844 49.453125 C 33.109844 49.336125 33.176625 49.149797 33.140625 48.966797 C 33.104625 48.783797 32.970016 48.636984 32.791016 48.583984 C 31.869016 48.312984 30.697422 47.770703 30.357422 46.720703 C 29.923422 45.382703 33.105672 41.554031 38.888672 38.832031 C 39.138672 38.714031 39.244953 38.416016 39.126953 38.166016 C 39.039953 37.977766 38.848734 37.870984 38.654297 37.878906 z M 62.970703 38.728516 C 62.775937 38.730625 62.592422 38.845859 62.513672 39.037109 C 62.260672 39.649109 61.968484 40.248359 61.646484 40.818359 C 61.510484 41.059359 61.595938 41.363 61.835938 41.5 C 61.913938 41.543 61.998031 41.564453 62.082031 41.564453 C 62.256031 41.564453 62.425578 41.473547 62.517578 41.310547 C 62.859578 40.704547 63.1695 40.067969 63.4375 39.417969 C 63.5425 39.162969 63.420062 38.870625 63.164062 38.765625 C 63.100062 38.739625 63.035625 38.727812 62.970703 38.728516 z M 60.4375 42.865234 C 60.309625 42.875109 60.186656 42.933563 60.097656 43.039062 C 59.056656 44.262062 57.807719 45.284125 56.386719 46.078125 C 56.145719 46.213125 56.060313 46.517766 56.195312 46.759766 C 56.287312 46.923766 56.457813 47.015625 56.632812 47.015625 C 56.715812 47.015625 56.799953 46.995125 56.876953 46.953125 C 58.400953 46.100125 59.741375 45.003453 60.859375 43.689453 C 61.038375 43.479453 61.012734 43.163375 60.802734 42.984375 C 60.698234 42.895375 60.565375 42.855359 60.4375 42.865234 z M 27.716797 56.267578 C 27.522172 56.263594 27.3355 56.376203 27.25 56.564453 C 26.742 57.704453 26.254734 58.911297 25.802734 60.154297 C 25.707734 60.414297 25.841563 60.701875 26.101562 60.796875 C 26.158562 60.817875 26.216437 60.826172 26.273438 60.826172 C 26.477438 60.826172 26.668188 60.699094 26.742188 60.496094 C 27.186187 59.275094 27.664062 58.089656 28.164062 56.972656 C 28.275063 56.719656 28.162156 56.4255 27.910156 56.3125 C 27.847156 56.284 27.781672 56.268906 27.716797 56.267578 z M 31.013672 72.619141 C 33.553672 73.641141 41.207031 77.205734 41.207031 83.052734 C 41.207031 83.574734 40.783719 84 40.261719 84 C 39.739719 84 39.3125 83.575734 39.3125 83.052734 L 39.3125 82.638672 L 39.019531 82.345703 C 37.966531 81.292703 35.825703 81.136031 33.345703 80.957031 C 30.919703 80.781031 27.929484 80.565609 27.646484 79.349609 L 27.857422 78.927734 L 27.859375 78.925781 L 31.013672 72.619141 z M 22.201172 72.632812 L 25.369141 78.880859 L 25.603516 79.349609 C 25.320516 80.565609 22.330297 80.781031 19.904297 80.957031 C 17.425297 81.136031 15.283469 81.292703 14.230469 82.345703 C 13.575469 83.002703 12.980609 83.342578 12.599609 83.267578 C 12.355609 83.222578 12.155922 82.9845 12.044922 82.8125 C 12.248922 77.1315 19.663172 73.657813 22.201172 72.632812 z"/></svg>