<svg xmlns="http://www.w3.org/2000/svg"  viewBox="0 0 64 64" width="64px" height="64px"><path d="M 1.5253906 9 A 1.0001 1.0001 0 0 0 0.609375 9.7753906 C -0.74611553 15.632047 0.63420421 20.604254 2.53125 25.009766 C 2.4325452 25.011589 2.0586928 25 2 25 A 1.0001 1.0001 0 0 0 1.0117188 26.152344 C 2.8993434 38.421904 12.827344 45.149616 14.755859 46.363281 L 12.080078 52.605469 A 1.0001 1.0001 0 0 0 12.990234 54 C 16.769393 54.03749 20.02326 52.520915 22.660156 49.785156 C 23.228073 51.114373 25.312061 55.970583 27.072266 60.371094 A 1.0001 1.0001 0 0 0 28.513672 60.857422 C 31.257469 59.211144 33.12469 56.526277 34.068359 53.830078 C 34.545777 52.466027 34.802775 51.087731 34.779297 49.806641 C 38.002478 49.181617 42.906276 47.513443 47.435547 44.453125 C 51.961389 41.395124 55.916969 36.918323 56.779297 31.011719 C 58.321083 31.168728 59.8423 30.82914 61.039062 30.285156 C 62.522143 29.611029 63.599609 28.800781 63.599609 28.800781 A 1.0001 1.0001 0 0 0 63.416016 27.091797 C 59.382578 25.242803 57.787642 22.75908 57.109375 20.085938 C 56.431108 17.412795 56.774948 14.514855 56.996094 12.089844 A 1.0001 1.0001 0 0 0 55.400391 11.199219 C 51.083708 14.43673 48.694338 21.437051 50.958984 27.835938 C 49.792363 30.539973 47.328731 32.620257 44.59375 33.519531 C 41.9334 34.394266 39.150455 34.127063 37.03125 32.488281 C 37.0635 29.804082 37.313275 27.587952 38.154297 25.800781 C 39.052974 23.891092 40.586399 22.324965 43.447266 20.894531 A 1.0001 1.0001 0 0 0 43.447266 19.105469 C 41.208752 17.986212 38.542199 17.738801 36.138672 18.005859 C 33.735145 18.272918 31.587597 18.998341 30.292969 20.292969 A 1.0001 1.0001 0 1 0 31.707031 21.707031 C 32.412403 21.001659 34.264855 20.227082 36.361328 19.994141 C 37.808594 19.833333 39.305608 20.008491 40.712891 20.357422 C 38.73207 21.687542 37.185086 23.16553 36.345703 24.949219 C 35.24438 27.28953 35 29.944444 35 33 A 1.0001 1.0001 0 0 0 35.337891 33.75 C 38.101193 36.1851 41.881358 36.515318 45.21875 35.417969 C 48.556142 34.320619 51.552233 31.809846 52.927734 28.371094 A 1.0001 1.0001 0 0 0 52.929688 27.630859 C 51.116127 23.066571 52.372628 18.01894 54.791016 14.806641 C 54.676652 16.620508 54.65694 18.556394 55.169922 20.578125 C 55.863738 23.312551 57.657274 25.979529 61.025391 27.994141 C 60.679302 28.198329 60.682193 28.250636 60.210938 28.464844 C 58.944018 29.040716 57.40531 29.413749 56.316406 29.050781 A 1.0001 1.0001 0 0 0 55.003906 29.916016 C 54.537124 35.517397 50.792075 39.771455 46.314453 42.796875 C 42.082932 45.656011 37.349807 47.2585 34.453125 47.832031 C 34.299345 47.341082 34.112481 46.865988 33.832031 46.445312 C 33.182689 45.4713 32.112689 44.980236 31.210938 45.220703 C 30.309186 45.46117 29.735142 46.184433 29.529297 47.007812 C 29.323452 47.831193 29.599307 48.899831 30.455078 49.503906 C 31.023654 49.905254 31.815991 50.035086 32.720703 50.044922 C 32.718503 50.995854 32.566975 52.068968 32.181641 53.169922 C 31.500664 55.115569 30.122439 56.948305 28.384766 58.324219 C 26.444103 53.558932 23.919922 47.605469 23.919922 47.605469 A 1.0001 1.0001 0 0 0 22.214844 47.380859 C 20.090749 50.073951 17.58772 51.489086 14.583984 51.845703 L 16.919922 46.394531 A 1.0001 1.0001 0 0 0 16.503906 45.136719 C 16.503906 45.136719 5.7425103 38.702065 3.2890625 27.021484 C 3.3178865 27.021137 3.3589159 27.023737 3.3886719 27.023438 C 4.3127762 28.943531 5.2665346 30.769398 6.1054688 32.447266 A 1.0001 1.0001 0 0 0 6.7578125 32.970703 C 10.948037 34.018259 15.528258 33.912893 22.349609 39.759766 A 1.0001 1.0001 0 0 0 23.978516 38.791016 C 22.401131 31.430057 17.270675 27.867611 12.433594 26.298828 C 10.015053 25.514437 7.6562889 25.193329 5.7714844 25.064453 C 5.2463582 25.028547 5.1676081 25.058388 4.7207031 25.046875 C 2.8447955 20.922473 1.4690843 16.424263 2.4140625 11.177734 C 8.4623746 12.164816 12.505101 13.93755 16.761719 16.304688 C 16.280001 16.480981 15.732013 16.559996 15.392578 16.908203 C 14.81943 17.496164 14.473819 18.286921 14.494141 19.125 C 14.514461 19.963079 14.937769 20.82134 15.699219 21.423828 C 16.479133 22.040974 17.491787 22.091461 18.314453 21.818359 C 19.137119 21.545258 19.849172 20.982636 20.320312 20.216797 C 20.496934 19.929699 20.586449 19.582394 20.673828 19.238281 C 23.538852 21.140241 26.968113 23.494282 31.265625 29.578125 A 1.0006075 1.0006075 0 1 0 32.900391 28.423828 C 27.899108 21.343681 23.608111 18.720512 20.640625 16.742188 C 20.459028 16.621105 20.275008 16.580558 20.091797 16.486328 C 19.654328 15.864345 19.080559 15.27754 18.212891 14.789062 C 13.444357 12.103419 8.8510985 10.027836 1.7246094 9.0097656 A 1.0001 1.0001 0 0 0 1.625 9 A 1.0001 1.0001 0 0 0 1.5253906 9 z M 17.835938 17.835938 C 18.078688 17.819897 18.442878 18.036632 18.753906 18.144531 C 18.850896 18.517018 18.813815 18.850308 18.617188 19.169922 C 18.404077 19.516333 18.02349 19.807086 17.683594 19.919922 C 17.343697 20.032758 17.125039 20.002319 16.939453 19.855469 C 16.582403 19.572957 16.498272 19.327125 16.492188 19.076172 C 16.486088 18.825219 16.594492 18.540351 16.824219 18.304688 C 17.053945 18.069024 17.388056 17.865539 17.835938 17.835938 z M 5.5996094 27.060547 C 5.6166464 27.061647 5.6176366 27.059347 5.6347656 27.060547 C 7.4062111 27.181671 9.6099472 27.485563 11.816406 28.201172 C 15.497296 29.394974 19.040911 31.779818 20.976562 36.34375 C 15.359785 32.43424 10.950806 31.892342 7.6796875 31.134766 C 7.008568 29.809156 6.295292 28.457886 5.5996094 27.060547 z M 31.761719 47.138672 C 31.808707 47.126668 31.904976 47.160197 32.167969 47.554688 C 32.222479 47.636448 32.208579 47.817319 32.255859 47.912109 C 32.112142 47.869579 31.667571 47.913514 31.607422 47.871094 C 31.400695 47.725169 31.426548 47.668807 31.470703 47.492188 C 31.514853 47.315568 31.690814 47.16383 31.726562 47.154297 C 31.7355 47.151922 31.746056 47.142673 31.761719 47.138672 z"/></svg>