<svg fill="#000000" xmlns="http://www.w3.org/2000/svg"  viewBox="0 0 64 64" width="50px" height="50px"><path d="M 15.771484 4.0019531 A 14 14 0 0 0 16 32 C 16.359 32 16.677469 31.982031 16.980469 31.957031 L 21.449219 36.082031 A 10.971 10.971 0 0 0 28.910156 39 L 43.683594 39 A 4.281 4.281 0 0 1 45.435547 39.380859 A 4.191 4.191 0 0 1 46.517578 40.087891 C 46.541578 40.108891 46.568797 40.126438 46.591797 40.148438 A 4.389 4.389 0 0 1 47.052734 40.648438 A 4.452 4.452 0 0 1 47.441406 41.240234 A 4.545 4.545 0 0 1 47.804688 42.101562 C 47.824688 42.167563 47.850187 42.232734 47.867188 42.302734 C 47.893188 42.402734 47.909734 42.501563 47.927734 42.601562 A 3.53 3.53 0 0 1 47.955078 43.867188 A 4.19 4.19 0 0 1 47.837891 44.435547 C 47.837891 44.453547 47.829219 44.472234 47.824219 44.490234 A 4.147 4.147 0 0 1 47.640625 44.996094 C 47.628625 45.025094 47.618469 45.055984 47.605469 45.083984 A 4.311 4.311 0 0 1 47.351562 45.556641 C 47.336562 45.581641 47.322641 45.607813 47.306641 45.632812 A 4.364 4.364 0 0 1 46.972656 46.082031 C 46.958656 46.099031 46.944688 46.119719 46.929688 46.136719 C 46.829687 46.247719 46.728906 46.348266 46.628906 46.447266 C 46.583906 46.490266 46.539187 46.531266 46.492188 46.572266 C 46.404187 46.649266 46.312703 46.722016 46.220703 46.791016 C 46.128703 46.860016 46.043172 46.913703 45.951172 46.970703 C 45.882172 47.013703 45.814188 47.060609 45.742188 47.099609 A 4.21 4.21 0 0 1 45.199219 47.353516 L 41.748047 48.646484 A 3.993 3.993 0 0 0 38 46 L 30 46 A 1 1 0 0 0 29.419922 47.8125 L 33.164062 50.488281 A 13.468 13.468 0 0 0 35.900391 52 A 13.565 13.565 0 0 0 33.167969 53.511719 L 29.421875 56.1875 A 1 1 0 0 0 30 58 L 38 58 A 3.987 3.987 0 0 0 41.443359 56 L 46.5 56 C 46.914 56 47.320563 55.971453 47.726562 55.939453 L 47.742188 55.939453 C 48.036187 55.915453 48.328188 55.880844 48.617188 55.839844 C 48.744188 55.822844 48.868141 55.80225 48.994141 55.78125 A 15.369 15.369 0 0 0 51.658203 55.099609 C 51.778203 55.056609 51.898578 55.01375 52.017578 54.96875 C 52.283578 54.86875 52.547641 54.767484 52.806641 54.646484 C 52.879641 54.613484 52.950437 54.576969 53.023438 54.542969 A 15.407 15.407 0 0 0 54.398438 53.814453 C 54.543438 53.728453 54.686125 53.642734 54.828125 53.552734 C 55.037125 53.418734 55.243312 53.280719 55.445312 53.136719 C 55.487313 53.107719 55.531266 53.080781 55.572266 53.050781 C 55.645266 52.997781 55.713156 52.936812 55.785156 52.882812 C 56.054156 52.682812 56.321172 52.474859 56.576172 52.255859 C 56.668172 52.176859 56.75375 52.092719 56.84375 52.011719 C 57.10575 51.776719 57.364375 51.538156 57.609375 51.285156 C 57.651375 51.242156 57.689469 51.196344 57.730469 51.152344 A 15.488 15.488 0 0 0 61.125 45.587891 L 61.146484 45.53125 C 61.283484 45.13125 61.400859 44.731453 61.505859 44.314453 C 61.511859 44.290453 61.521344 44.266188 61.527344 44.242188 C 61.533344 44.218187 61.536969 44.193922 61.542969 44.169922 C 61.626969 43.827922 61.699766 43.484766 61.759766 43.134766 C 61.808766 42.856766 61.853719 42.578734 61.886719 42.302734 C 61.906719 42.136734 61.919594 41.970734 61.933594 41.802734 C 61.972594 41.365734 62 40.931906 62 40.503906 C 62 40.041906 61.970688 39.580094 61.929688 39.121094 C 61.916687 38.973094 61.899766 38.8315 61.884766 38.6875 C 61.844766 38.354167 61.793755 38.023932 61.732422 37.697266 C 61.696422 37.503266 61.659187 37.310141 61.617188 37.119141 C 61.543854 36.795807 61.461141 36.475536 61.369141 36.158203 C 61.303141 35.933203 61.229297 35.714141 61.154297 35.494141 C 61.093297 35.317141 61.028938 35.141797 60.960938 34.966797 A 15.314 15.314 0 0 0 59.8125 32.599609 C 59.7645 32.518609 59.723828 32.434516 59.673828 32.353516 C 59.651828 32.319516 59.626469 32.289906 59.605469 32.253906 C 59.393469 31.917906 59.167641 31.592391 58.931641 31.275391 C 58.854641 31.175391 58.780172 31.06975 58.701172 30.96875 C 58.489172 30.69875 58.267062 30.436641 58.039062 30.181641 C 57.918062 30.045641 57.796875 29.90825 57.671875 29.78125 C 57.471875 29.57325 57.265688 29.375641 57.054688 29.181641 C 56.889688 29.026641 56.724687 28.871609 56.554688 28.724609 C 56.354687 28.556609 56.154266 28.397281 55.947266 28.238281 C 55.757266 28.092281 55.569047 27.947547 55.373047 27.810547 C 55.148047 27.652547 54.916594 27.509328 54.683594 27.361328 C 54.502594 27.248328 54.324672 27.134297 54.138672 27.029297 C 53.853672 26.867297 53.560625 26.720172 53.265625 26.576172 C 53.127625 26.509172 52.991563 26.439953 52.851562 26.376953 C 52.486562 26.212953 52.111422 26.066687 51.732422 25.929688 C 51.654422 25.901688 51.579 25.871703 51.5 25.845703 C 51.068 25.697703 50.625734 25.570938 50.177734 25.460938 C 50.150734 25.454937 50.125609 25.445453 50.099609 25.439453 L 50.066406 25.433594 A 15.275 15.275 0 0 0 48.332031 25.121094 L 48.271484 25.111328 A 15.4 15.4 0 0 0 46.5 25 L 12.175781 25 A 7.99 7.99 0 1 1 24 18 A 7.926 7.926 0 0 1 23.111328 21.671875 A 1.0002716 1.0002716 0 1 0 24.888672 22.587891 A 10 10 0 1 0 6 18 A 10.017 10.017 0 0 0 11.527344 26.925781 L 14.792969 29.939453 A 12 12 0 1 1 28 18 A 11.877 11.877 0 0 1 27.419922 21.689453 A 1 1 0 0 0 29.318359 22.310547 A 14 14 0 0 0 15.771484 4.0019531 z M 34 21 L 34 23 L 36 23 L 36 21 L 34 21 z M 38 21 L 38 23 L 42 23 L 42 21 L 38 21 z M 14.558594 27 L 36 27 L 36 37 L 28.910156 37 A 8.975 8.975 0 0 1 22.806641 34.613281 L 14.558594 27 z M 38 27 L 46.5 27 C 46.891 27 47.275203 27.025594 47.658203 27.058594 C 47.888203 27.079594 48.119563 27.109578 48.351562 27.142578 L 48.552734 27.173828 L 45.212891 37.191406 C 45.196891 37.191406 45.180063 37.186594 45.164062 37.183594 A 6.078 6.078 0 0 0 44.558594 37.068359 C 44.508594 37.061359 44.458156 37.051875 44.410156 37.046875 A 6.285 6.285 0 0 0 43.683594 37 L 38 37 L 38 27 z M 50.511719 27.626953 A 13.614 13.614 0 0 1 57.412109 32.585938 C 57.429109 32.606937 57.446891 32.629344 57.462891 32.652344 L 57.458984 32.654297 L 48.566406 39.324219 A 6.371 6.371 0 0 0 47.054688 37.988281 L 47.253906 37.394531 L 50.511719 27.626953 z M 27.5 29 A 1.5 1.5 0 0 0 27.5 32 A 1.5 1.5 0 0 0 27.5 29 z M 58.511719 34.363281 L 58.53125 34.402344 A 13.742 13.742 0 0 1 59.111328 35.720703 C 59.140328 35.796703 59.169266 35.872219 59.197266 35.949219 C 59.339266 36.344219 59.459453 36.750391 59.564453 37.150391 C 59.590453 37.250391 59.620531 37.356891 59.644531 37.462891 C 59.734531 37.858891 59.800375 38.255297 59.859375 38.654297 C 59.874375 38.765297 59.896203 38.874328 59.908203 38.986328 A 13.16 13.16 0 0 1 60 40.5 C 60 40.921 59.9755 41.335094 59.9375 41.746094 C 59.8995 42.157094 59.836906 42.58 59.753906 43 L 49.992188 43 C 49.992188 42.967 49.980516 42.936391 49.978516 42.900391 A 6.239 6.239 0 0 0 49.578125 41.0625 L 58.511719 34.363281 z M 49.763672 45 L 59.212891 45 L 59.205078 45.017578 A 13.49 13.49 0 0 1 58.076172 47.410156 L 57.962891 47.597656 A 13.607 13.607 0 0 1 56.492188 49.544922 C 56.421188 49.623922 56.350344 49.70325 56.277344 49.78125 C 56.112677 49.954583 55.944198 50.123729 55.769531 50.289062 C 55.681531 50.372062 55.59 50.452203 55.5 50.533203 C 55.329 50.686203 55.159469 50.840375 54.980469 50.984375 L 49.087891 46.564453 C 49.123891 46.505453 49.147641 46.440859 49.181641 46.380859 C 49.267641 46.225859 49.352781 46.070203 49.425781 45.908203 C 49.475781 45.798203 49.517547 45.684266 49.560547 45.572266 C 49.625547 45.404266 49.690234 45.2365 49.740234 45.0625 C 49.747234 45.0415 49.757672 45.022 49.763672 45 z M 33.119141 48 L 38 48 A 2 2 0 0 1 40 50 L 40 50.957031 A 11.425 11.425 0 0 1 34.326172 48.861328 L 33.119141 48 z M 47.796875 48.095703 L 53.240234 52.179688 L 53.210938 52.197266 C 52.860938 52.399266 52.503339 52.583333 52.138672 52.75 L 52.060547 52.787109 C 51.686547 52.957109 51.307255 53.108854 50.919922 53.242188 L 50.855469 53.265625 C 50.468469 53.397625 50.075734 53.510422 49.677734 53.607422 L 49.599609 53.626953 C 49.209609 53.718286 48.815969 53.791656 48.417969 53.847656 L 48.341797 53.859375 L 46.679688 48.873047 L 46.720703 48.847656 C 46.802703 48.802656 46.877031 48.747172 46.957031 48.701172 C 47.108031 48.607172 47.258344 48.510344 47.402344 48.402344 C 47.508344 48.324344 47.611891 48.245156 47.712891 48.160156 C 47.739891 48.138156 47.769875 48.118703 47.796875 48.095703 z M 44.824219 49.634766 L 46.279297 54 L 42 54 L 42 50.693359 L 44.824219 49.634766 z M 40 53.042969 L 40 54 A 2 2 0 0 1 38 56 L 33.119141 56 L 34.326172 55.138672 A 11.417 11.417 0 0 1 40 53.042969 z M 44 58 L 44 60 L 46 60 L 46 58 L 44 58 z M 48 58 L 48 60 L 52 60 L 52 58 L 48 58 z"/></svg>