<svg fill="#000000" xmlns="http://www.w3.org/2000/svg"  viewBox="0 0 512 512" width="50px" height="50px"><path d="M 353.93945 105.00586 A 5.652 5.652 0 0 0 348.55859 108.40039 C 344.86659 116.88739 333.8292 146.57836 346.7832 172.31836 C 354.4832 187.62536 369.13489 198.51816 390.33789 204.78516 C 371.95389 229.19216 350.92561 242.99148 325.47461 247.39648 C 327.42361 241.98448 327.99386 234.62544 324.25586 225.27344 A 6.276 6.276 0 0 0 313.41602 223.82227 C 301.25102 239.98727 283.25727 245.32147 279.19727 246.35547 C 254.72927 242.01047 229.16942 232.78411 204.48242 222.91211 C 175.18242 211.19311 141.00983 208.18661 102.92383 213.97461 C 71.472828 218.75461 44.006906 228.55459 26.503906 235.93359 A 25.137 25.137 0 0 0 12.490234 250.71289 A 25.779 25.779 0 0 0 13.724609 270.61133 A 185.727 185.727 0 0 0 63.064453 333.26953 A 183.133 183.133 0 0 0 116.38867 363.48047 C 111.28867 369.75647 106.14975 381.29786 109.71875 401.13086 C 110.59475 407.09886 118.95741 409.10753 122.44141 404.14453 C 128.60541 395.91453 145.12309 376.69328 165.87109 374.98828 C 170.18909 375.48961 174.56967 375.88073 179.01367 376.16406 C 187.32167 376.69006 195.55174 376.95251 203.70508 376.95117 C 235.60508 376.95117 265.98808 372.92923 292.83008 365.11523 C 308.68208 376.59023 337.26341 385.7842 355.06641 385.7832 A 28.944 28.944 0 0 0 365.25781 384.2832 A 9.617 9.617 0 0 0 369.81055 370.01367 A 169.31 169.31 0 0 0 345.7207 341.41406 C 368.7737 326.82306 387.29169 308.17481 400.80469 285.88281 A 173.84 173.84 0 0 0 423.66406 222.11719 A 109.111 109.111 0 0 0 438.23438 223.14648 C 454.91737 223.14648 468.59597 218.69031 479.04297 209.82031 C 499.18497 192.72031 501.10509 164.24487 500.99609 152.79688 A 5.675 5.675 0 0 0 494.24414 147.28711 A 5.625 5.625 0 0 0 489.98242 151.06055 C 484.35542 167.03855 464.74878 166.17061 453.55078 164.22461 C 439.83378 161.84461 430.17525 164.33214 423.40625 168.49414 C 420.43525 158.45414 411.95911 143.04392 387.78711 137.41992 C 376.70111 134.84092 358.26986 127.97953 359.38086 111.01953 A 5.652 5.652 0 0 0 353.93945 105.00586 z M 352.90234 126.43945 C 357.20234 134.38845 366.40253 142.7102 385.51953 147.1582 C 410.40853 152.9492 414.28853 170.62808 414.89453 176.08008 A 36.477 36.477 0 0 0 409.79492 184.81445 A 14.242 14.242 0 0 0 399.48438 191.43359 C 398.48438 193.03359 397.47012 194.58814 396.45312 196.11914 C 376.19912 190.79914 362.49984 181.29931 355.71484 167.82031 C 353.39984 163.22031 347.41434 148.35845 352.90234 126.43945 z M 489.89648 167.77148 C 488.10548 179.03848 483.58131 192.85122 472.57031 202.19922 C 461.47031 211.62122 445.46989 214.97322 424.96289 212.19922 C 425.40089 208.05322 425.7193 203.85361 425.91797 199.59961 A 14.338 14.338 0 0 0 419.56641 187.09961 C 422.35141 180.96761 430.3618 170.34998 451.8418 174.08398 C 471.1228 177.43098 482.82548 173.38448 489.89648 167.77148 z M 411.71094 194.61523 C 412.49423 194.6206 413.25406 194.86717 413.91406 195.32617 A 4.2 4.2 0 0 1 415.30664 200.20508 L 415.30664 200.20703 C 388.20664 274.63103 334.65031 314.00617 322.07031 322.45117 A 167.614 167.614 0 0 0 270.69922 299.4707 A 5 5 0 1 0 268.19922 309.15039 C 322.89922 323.27439 352.89936 362.68023 361.19336 375.11523 C 350.51836 378.55323 311.34584 368.6927 295.33984 354.3457 C 276.86484 337.7807 260.48606 338.63186 246.03906 339.38086 A 93.715 93.715 0 0 1 230.4668 339.33984 C 221.5468 338.31584 215.9938 335.52859 213.9668 331.05859 C 210.4988 323.42559 216.99397 311.2202 219.79297 307.1582 A 5.0010489 5.0010489 0 0 0 211.57422 301.45703 A 55.5 55.5 0 0 0 204.16211 317.39062 A 53.5 53.5 0 0 1 184.86133 307.88281 C 160.21933 289.07681 129.98669 277.83781 97.429688 275.38281 C 53.347687 272.05381 30.371203 257.08922 23.158203 251.44922 A 15.2 15.2 0 0 1 30.388672 245.14453 C 47.367672 237.98553 73.994781 228.48242 104.42578 223.85742 C 140.72578 218.33942 173.14053 221.14436 200.76953 232.19336 C 238.96953 247.46736 279.32194 261.25053 315.71094 258.64453 C 353.41994 255.94453 383.59589 235.69837 407.96289 196.73438 C 409.03664 195.26875 410.40545 194.6063 411.71094 194.61523 z M 410.90625 235.0293 A 160.391 160.391 0 0 1 392.25391 280.69922 C 379.09191 302.41422 360.83733 320.47522 337.98633 334.44922 C 335.69499 332.50389 333.28639 330.56791 330.76172 328.64258 A 240.243 240.243 0 0 0 363.25195 300.75977 A 274.465 274.465 0 0 0 410.90625 235.0293 z M 316.75195 235.36523 C 317.71395 241.87123 315.50117 246.19462 313.32617 248.76562 A 125.823 125.823 0 0 1 299.53906 248.76562 A 72.065 72.065 0 0 0 316.75195 235.36523 z M 21.378906 262.55273 C 32.613906 270.15273 56.411734 282.31552 96.677734 285.35352 C 127.29973 287.66552 155.69788 298.20303 178.79688 315.83203 A 63.079 63.079 0 0 0 203.00781 327.42383 A 21.666 21.666 0 0 0 204.84766 335.16602 C 208.42566 343.07102 216.66112 347.81744 229.32812 349.27344 A 102.7 102.7 0 0 0 246.56055 349.36523 C 258.62955 348.73823 270.11278 348.14763 283.17578 357.39062 C 252.36578 365.36362 216.02748 368.4915 179.64648 366.1875 L 179.64258 366.1875 C 136.14258 363.4315 99.049719 349.75134 69.386719 325.52734 A 175.68 175.68 0 0 1 22.490234 265.77539 A 15.252 15.252 0 0 1 21.378906 262.55273 z M 165.01367 266.56445 A 11 11 0 1 0 176.01367 277.56445 A 11.012 11.012 0 0 0 165.01367 266.56445 z M 126.90039 367.00195 C 132.53972 368.71395 138.31766 370.19841 144.23633 371.45508 C 133.21133 377.37608 124.39922 386.13927 118.69922 392.82227 C 117.40522 376.38327 123.88539 369.35295 126.90039 367.00195 z"/></svg>