<svg fill="#000000" xmlns="http://www.w3.org/2000/svg"  viewBox="0 0 50 50" width="50px" height="50px"><path d="M 4.5039062 0.20898438 C 4.270002 0.23072292 4.0374397 0.27702534 3.8144531 0.34375 C 2.922507 0.61064864 2.0852782 1.1885241 1.40625 2.0078125 C 0.72729902 2.8270078 0.31552594 3.7577873 0.21875 4.6835938 C 0.12197406 5.6094001 0.37308219 6.6074318 1.1386719 7.2421875 C 1.43736 7.4893777 1.8198467 7.4359783 2.1757812 7.5234375 C 2.4225489 11.09635 4.525241 15.440882 7.8164062 18.134766 C 9.5864535 19.584191 11.359848 20.69642 13.121094 21.65625 C 13.103526 22.162235 13.10425 23.075854 13.398438 24.574219 C 13.80211 26.630219 14.74083 29.449618 16.845703 32.558594 A 1.0001 1.0001 0 0 0 18.65625 32.177734 C 19.134059 29.549783 19.60628 27.105743 20.519531 25.171875 C 21.616408 25.674639 22.699505 26.188944 23.755859 26.765625 C 28.735333 29.483999 33.350052 33.416251 37.494141 43.083984 C 37.524051 43.305713 37.548231 43.501404 37.625 43.818359 C 37.734856 44.271895 37.893465 44.837198 38.107422 45.445312 C 38.535335 46.661544 39.146562 48.049412 40.144531 49.058594 A 1.0001 1.0001 0 0 0 41.558594 49.066406 C 43.114842 47.52782 45.505072 45.357545 48.664062 46.039062 A 1.0001 1.0001 0 0 0 49.703125 44.5 C 48.611812 42.890775 46.55504 41.747146 44.716797 40.855469 C 43.797675 40.40963 42.934551 40.049973 42.275391 39.800781 C 42.023197 39.705441 41.832107 39.642515 41.644531 39.580078 C 39.202514 28.271869 34.796589 19.708091 29.560547 13.513672 C 30.850875 12.338725 32.379531 11.242945 34.085938 10.183594 A 1.0001 1.0001 0 0 0 33.746094 8.3515625 C 31.677205 7.9570182 29.804401 7.8578073 28.181641 7.9199219 C 26.707354 7.9763533 25.472282 8.1722455 24.451172 8.3925781 C 22.752925 6.9642462 21.012111 5.7401109 19.257812 4.7109375 C 15.38605 2.4404773 10.794582 1.0474109 6.9609375 1.7402344 C 6.8099329 1.4073736 6.8004425 1.0214779 6.5019531 0.7734375 A 1.0001 1.0001 0 0 0 6.5 0.7734375 C 6.1170809 0.45595918 5.6691208 0.28196704 5.2050781 0.22070312 C 4.9730568 0.19007117 4.7378105 0.18724583 4.5039062 0.20898438 z M 4.9179688 2.1933594 C 5.0536364 2.2084806 5.1519796 2.2542289 5.2226562 2.3125 C 5.3290964 2.4009502 5.4149704 2.5457787 5.4335938 2.8515625 A 1.0001 1.0001 0 0 0 6.6875 3.7558594 C 9.7424412 2.9436433 14.425157 4.1984017 18.244141 6.4375 C 18.508878 6.5928103 18.772749 6.7687645 19.037109 6.9335938 C 19.037523 7.1305404 18.995445 7.2601889 18.873047 7.3984375 C 18.695477 7.5990067 18.274782 7.8579557 17.707031 8.125 C 16.571529 8.6590886 14.829442 9.2499023 13.927734 10.972656 C 13.507761 11.772567 13.574967 12.579472 13.650391 13.306641 C 13.725881 14.03441 13.840973 14.732197 13.828125 15.330078 C 13.815275 15.927959 13.706037 16.383856 13.365234 16.808594 C 13.024431 17.233331 12.382992 17.685336 11.109375 18.035156 A 1.00074 1.00074 0 0 0 11.042969 18.056641 C 10.387331 17.606259 9.7343522 17.120452 9.0839844 16.587891 C 6.1334711 14.172838 4.0675507 9.6001445 4.0761719 6.8085938 A 1.0001 1.0001 0 0 0 2.9648438 5.8125 C 2.6730865 5.8455069 2.5194001 5.7883478 2.4140625 5.7011719 C 2.2730984 5.5836628 2.1591655 5.3485326 2.2070312 4.890625 C 2.2550054 4.4316815 2.4962635 3.8250078 2.9453125 3.2832031 C 3.3942843 2.7414915 3.946368 2.392117 4.3886719 2.2597656 C 4.6093091 2.193744 4.7823011 2.1782381 4.9179688 2.1933594 z M 12.322266 5.3085938 A 1.8329999 1.222 21.758 0 0 11.158203 5.9511719 A 1.8329999 1.222 21.758 0 0 12.40625 7.765625 A 1.8329999 1.222 21.758 0 0 14.5625 7.3085938 A 1.8329999 1.222 21.758 0 0 13.3125 5.4941406 A 1.8329999 1.222 21.758 0 0 12.322266 5.3085938 z M 20.765625 8.0839844 C 28.842636 13.803414 36.422242 24.136045 39.837891 40.587891 A 1.0001 1.0001 0 0 0 40.701172 41.376953 C 40.725852 41.383253 40.776373 41.396312 40.851562 41.419922 C 41.015619 41.471422 41.266565 41.557783 41.568359 41.671875 C 42.171949 41.900058 42.989825 42.241089 43.845703 42.65625 C 44.658956 43.050735 45.496568 43.53857 46.230469 44.035156 C 43.979592 44.421249 42.391274 45.731049 41.140625 46.875 C 40.715996 46.238521 40.269127 45.562825 39.994141 44.78125 C 39.805597 44.245365 39.662878 43.737871 39.568359 43.347656 C 39.473841 42.957442 39.433474 42.573598 39.4375 42.707031 A 1.0001 1.0001 0 0 0 39.357422 42.34375 C 35.069479 32.313987 29.973084 27.880323 24.714844 25.009766 C 20.846951 22.898222 16.971054 21.588005 13.162109 19.384766 C 13.907383 19.020563 14.503184 18.584789 14.923828 18.060547 C 15.598744 17.219409 15.809598 16.235166 15.828125 15.373047 C 15.846655 14.510928 15.703717 13.726715 15.638672 13.099609 C 15.573632 12.472503 15.618396 12.052283 15.697266 11.902344 A 1.0001 1.0001 0 0 0 15.699219 11.900391 C 16.172468 10.996192 17.303346 10.525958 18.558594 9.9355469 C 19.186218 9.6403412 19.841491 9.3206027 20.369141 8.7246094 C 20.531059 8.5417184 20.657718 8.3207186 20.765625 8.0839844 z M 29.003906 10.037109 C 29.603865 10.046286 30.232173 10.074846 30.880859 10.123047 C 29.9945 10.754691 29.059206 11.357345 28.240234 12.03125 C 27.631454 11.372861 27.014813 10.739209 26.388672 10.140625 C 27.176072 10.067788 28.039261 10.022355 29.003906 10.037109 z M 8.3378906 11.050781 A 1.8329999 1.222 47.147 0 0 7.6132812 11.287109 A 1.8329999 1.222 47.147 0 0 7.9648438 13.460938 A 1.8329999 1.222 47.147 0 0 10.107422 13.974609 A 1.8329999 1.222 47.147 0 0 9.7558594 11.798828 A 1.8329999 1.222 47.147 0 0 8.3378906 11.050781 z M 20.90625 14.666016 A 1.0001 1.0001 0 0 0 20.449219 16.529297 C 20.449219 16.529297 23.887499 18.593557 27.328125 22.035156 A 1.0001 1.0001 0 1 0 28.742188 20.621094 C 25.112813 16.990693 21.478516 14.814453 21.478516 14.814453 A 1.0001 1.0001 0 0 0 20.90625 14.666016 z M 15.152344 22.707031 C 16.356405 23.292398 17.54129 23.824678 18.71875 24.349609 C 18.030312 25.826593 17.602233 27.446776 17.25 29.115234 C 16.284912 27.22786 15.615779 25.483477 15.361328 24.1875 C 15.244744 23.593709 15.188783 23.121426 15.152344 22.707031 z"/></svg>