<svg fill="#000000" xmlns="http://www.w3.org/2000/svg"  viewBox="0 0 512 512" width="50px" height="50px"><path d="M 156.81445 44.033203 C 82.753209 44.885544 54.486344 91.555047 46.675781 108.53711 A 16.152 16.152 0 0 1 39.265625 116.1543 C 22.925625 124.3873 13.571844 132.68527 11.464844 140.82227 A 13.693 13.693 0 0 0 13.5 152.24219 C 20.068 161.89719 35.662828 163.52756 61.173828 157.22656 C 62.061161 157.00656 62.94174 156.78273 63.816406 156.55273 C 69.267406 160.41573 84.459859 168.07597 121.13086 170.54297 A 91.95 91.95 0 0 0 117.14844 196.00586 C 116.97544 212.78986 121.95669 236.62438 146.67969 254.85938 A 12.446 12.446 0 0 0 166.48047 245.61328 C 166.68947 240.52428 164.78086 235.78628 164.38086 230.23828 C 161.86086 202.08828 177.04686 190.14683 182.50586 186.79883 A 373.73 373.73 0 0 1 234.52734 216.62305 C 248.50034 231.87205 269.25528 247.90812 299.98828 260.57812 A 7.488 7.488 0 0 0 309.76172 250.79297 C 309.21172 249.46497 308.61514 247.90636 307.99414 246.19336 C 358.88114 260.69336 383.56352 299.70325 395.35352 330.53125 C 400.53552 344.07725 396.28053 359.70211 384.76953 369.41211 C 380.31653 373.16711 375.72409 377.27414 371.12109 381.61914 C 354.61109 397.19614 359.30584 420.11991 362.08984 429.25391 A 6.471 6.471 0 0 0 374.28125 429.80078 C 381.55725 411.71378 397.34152 412.69172 406.10352 414.88672 C 415.76452 417.30472 422.32486 416.63508 426.75586 414.83008 C 427.90586 420.77908 430.36277 427.49602 435.50977 432.04102 C 439.80977 435.84102 445.20955 437.47311 451.56055 436.91211 C 473.09955 435.00011 482.89933 455.05934 486.11133 463.77734 C 488.04233 469.59234 497.01178 469.17638 498.42578 463.23438 C 510.13778 420.57538 479.53114 394.53364 460.24414 382.80664 A 33.133 33.133 0 0 1 444.41992 358.05859 C 433.33392 259.96859 410.36191 191.72306 372.12891 143.28906 A 223.674 223.674 0 0 0 323.37109 97.511719 C 325.25509 80.526719 335.90755 74.529078 342.31055 72.455078 A 6.531 6.531 0 0 0 342.86914 60.25 C 306.56114 44.469 270.35333 60.963031 261.23633 65.707031 A 430.966 430.966 0 0 0 215.71484 51.691406 C 193.43497 46.080281 173.90551 43.836509 156.81445 44.033203 z M 159.22266 53.970703 C 175.81372 54.02697 193.85591 56.497828 213.27344 61.388672 C 283.59444 79.100672 330.1653 106.27028 364.2793 149.48828 C 401.3073 196.39528 423.61647 263.02845 434.48047 359.18945 A 43.068 43.068 0 0 0 455.04688 391.35938 C 485.96188 410.14638 492.40047 432.20092 490.73047 450.04492 L 490.72852 450.04688 C 484.20152 438.56288 471.91378 425.06117 450.67578 426.95117 C 447.12078 427.27117 444.32581 426.48373 442.13281 424.55273 C 436.70281 419.75273 435.92541 409.18255 435.81641 406.06055 A 5.446 5.446 0 0 0 425.7168 403.41211 C 424.9628 404.65011 421.49725 408.43641 408.53125 405.19141 C 387.47725 399.92341 375.73156 409.2785 369.72656 417.5625 C 368.54356 408.8625 369.16637 397.21939 377.98438 388.90039 C 382.45337 384.68239 386.9048 380.70045 391.2168 377.06445 C 405.9758 364.61345 411.39041 344.48084 404.69141 326.96484 C 385.89841 277.82684 351.17186 245.99391 304.25586 234.87891 C 298.66686 216.60291 292.60158 190.97862 292.26758 175.89062 A 399.746 399.746 0 0 1 348.12109 227.35156 A 5.0000528 5.0000528 0 0 0 355.5332 220.63867 C 287.9482 146.02267 231.13305 130.20536 228.74805 129.56836 A 5.0006202 5.0006202 0 0 0 226.16992 139.23047 C 226.52292 139.32447 249.22298 145.64695 282.58398 168.87695 C 280.32598 188.40195 291.69144 230.1303 298.39844 249.0293 C 256.22844 230.3403 235.41341 205.2198 225.31641 187.0918 C 213.94041 166.6658 213.31664 150.43372 213.30664 150.26172 A 5.0017686 5.0017686 0 0 0 203.30664 150.52734 C 203.32564 151.26734 203.90772 168.92772 216.26172 191.38672 C 216.77172 192.31372 217.31591 193.2617 217.87891 194.2207 C 191.97891 178.8597 157.67192 162.30736 128.29492 160.94336 C 103.26892 159.78036 88.356859 156.21283 80.255859 153.42383 C 79.313859 153.09983 78.455531 152.77984 77.644531 152.46484 C 87.411531 149.26484 94.430234 146.34706 94.865234 146.16406 A 5 5 0 0 0 91.013672 136.9375 A 254.269 254.269 0 0 1 58.666016 147.54883 C 30.623016 154.45883 23.512812 149.20305 21.757812 146.62305 A 3.715 3.715 0 0 1 21.134766 143.33398 C 22.411766 138.40198 30.867906 131.5828 43.753906 125.0918 A 26.191 26.191 0 0 0 55.753906 112.7207 A 97.985 97.985 0 0 1 96 69.183594 C 113.82378 58.965156 134.97418 53.888467 159.22266 53.970703 z M 310.51367 63.65625 C 317.18631 63.684188 324.18664 64.533359 331.22852 66.630859 C 324.61852 70.663859 317.05352 78.104469 314.22852 91.480469 C 311.13452 89.538469 307.97152 87.647927 304.74219 85.808594 A 286.476 286.476 0 0 0 274.22852 70.855469 C 282.73358 67.509406 295.83386 63.594786 310.51367 63.65625 z M 137.44141 82.900391 A 11.051 11.051 0 1 0 148.5 93.949219 A 11.066 11.066 0 0 0 137.44141 82.900391 z M 137.41016 92.898438 A 1.051 1.051 0 0 1 138.49805 93.949219 A 1.055 1.055 0 0 1 137.44141 95 A 1.051 1.051 0 0 1 137.41016 92.898438 z M 131.44141 171.19141 C 143.11941 172.27841 156.85959 176.04827 171.93359 182.19727 C 163.47459 189.37127 152.01878 204.23791 154.42578 231.12891 L 154.42773 231.13086 C 153.96673 235.65486 160.41619 249.40445 152.61719 246.81445 C 135.59819 234.26145 127.03044 217.31317 127.14844 196.45117 A 82.281 82.281 0 0 1 131.44141 171.19141 z"/></svg>